<?xml version="1.0" encoding="UTF-8" standalone="no"?>
<!-- Created with Inkscape (http://www.inkscape.org/) -->

<svg
   xmlns:dc="http://purl.org/dc/elements/1.1/"
   xmlns:cc="http://creativecommons.org/ns#"
   xmlns:rdf="http://www.w3.org/1999/02/22-rdf-syntax-ns#"
   xmlns:svg="http://www.w3.org/2000/svg"
   xmlns="http://www.w3.org/2000/svg"
   xmlns:sodipodi="http://sodipodi.sourceforge.net/DTD/sodipodi-0.dtd"
   xmlns:inkscape="http://www.inkscape.org/namespaces/inkscape"
   width="1052.3622"
   height="744.09448"
   id="svg4119"
   version="1.1"
   inkscape:version="0.48+devel r9772"
   sodipodi:docname="New document 12">
  <defs
     id="defs4121" />
  <sodipodi:namedview
     id="base"
     pagecolor="#ffffff"
     bordercolor="#666666"
     borderopacity="1.0"
     inkscape:pageopacity="0.0"
     inkscape:pageshadow="2"
     inkscape:zoom="0.93536509"
     inkscape:cx="526.18109"
     inkscape:cy="372.04724"
     inkscape:document-units="px"
     inkscape:current-layer="layer1"
     showgrid="false"
     inkscape:window-width="1440"
     inkscape:window-height="851"
     inkscape:window-x="0"
     inkscape:window-y="1"
     inkscape:window-maximized="1" />
  <metadata
     id="metadata4124">
    <rdf:RDF>
      <cc:Work
         rdf:about="">
        <dc:format>image/svg+xml</dc:format>
        <dc:type
           rdf:resource="http://purl.org/dc/dcmitype/StillImage" />
        <dc:title></dc:title>
      </cc:Work>
    </rdf:RDF>
  </metadata>
  <g
     inkscape:label="Layer 1"
     inkscape:groupmode="layer"
     id="layer1"
     transform="translate(0,-308.2677)">
    <g
       id="g4746"
       transform="translate(4.2085937e-6,24.735626)">
      <path
         inkscape:connector-curvature="0"
         id="path4138"
         d="m 626.73685,447.58062 c -1.39093,0 -6.60034,4.16753 -11.56585,9.25267 l -9.018,9.21915 20.58385,0 20.58383,0 -9.05152,-9.21915 c -4.9655,-5.08514 -10.14139,-9.25267 -11.53231,-9.25267 z m -1.57565,1.64268 7.00656,5.53149 c 3.85111,3.04619 7.07038,6.32128 7.14065,7.27474 0.0703,0.95346 -6.36022,1.70974 -14.2813,1.70974 l -14.38186,0 7.27474,-7.27475 7.24121,-7.24122 z m -452.84449,9.88964 c -2.61908,0 -5.23341,15.29118 -3.18479,18.60591 2.37005,3.83482 5.5122,36.09328 8.07933,82.8047 l 2.21259,40.12843 -5.76616,4.52576 c -3.30721,2.60146 -5.76616,6.89905 -5.76616,10.1243 0,3.44644 -1.3233,5.63206 -3.45298,5.63206 -4.00086,0 -4.70205,8.21351 -0.90516,10.56011 2.7727,1.71364 1.07472,26.73921 -2.6484,39.12272 -1.14663,3.81386 -2.68836,10.85494 -3.41948,15.62226 -1.12383,7.32817 -2.22832,8.64923 -7.07359,8.64923 -3.98631,0 -6.38355,1.78035 -7.9117,5.79969 -2.00794,5.28127 -3.39778,5.76615 -16.12514,5.76615 l -13.91253,0 0,6.9395 0,6.9395 -25.109601,0 c -37.647214,0 -53.091719,2.0323 -54.74497,7.2412 -1.109644,3.4962 -3.700661,4.2911 -13.912531,4.2911 l -12.5715638,0 0,10.426 0,10.3925 300.3095258,0 300.30951,0 1.17335,-6.3696 c 0.66024,-3.496 1.86319,-21.4266 2.64841,-39.8602 0.78521,-18.43364 3.96855,-78.5022 7.0736,-133.49325 3.10503,-54.99105 5.63206,-101.01887 5.63206,-102.28224 0,-1.26336 -3.99089,-2.31317 -8.88391,-2.31317 l -8.91743,0 -1.57563,35.36801 c -0.86723,19.43955 -1.46093,62.59412 -1.34097,95.91265 0.11995,33.31851 -0.35665,60.5779 -1.07277,60.57817 -0.71611,3.1e-4 -2.34932,0 -3.62062,0 -1.27127,0 -2.31316,-2.58795 -2.31316,-5.76616 0,-3.17821 -1.04189,-5.79968 -2.31317,-5.79968 -1.27128,0 -2.31317,-3.12566 -2.31317,-6.9395 0,-3.81386 -1.04188,-6.90599 -2.31316,-6.90599 -1.2713,0 -2.31317,-1.60673 -2.31317,-3.55355 0,-1.94685 -1.54605,-4.12926 -3.45298,-4.86101 -2.13926,-0.82093 -3.48652,-4.3466 -3.48652,-9.18562 0,-4.31347 -1.04189,-7.84465 -2.31317,-7.84465 -1.27129,0 -2.31317,-2.11092 -2.31317,-4.69339 0,-2.58249 -1.54606,-5.3026 -3.45299,-6.03435 -1.90693,-0.73178 -3.48651,-3.87322 -3.48651,-6.97303 0,-5.22788 -0.60907,-5.52674 -8.64923,-4.19052 -13.20489,2.19456 -14.44893,2.88024 -14.44893,7.94523 0,2.58247 -1.04187,4.69338 -2.31316,4.69338 -1.2713,0 -2.31317,1.98513 -2.31317,4.39167 0,2.40657 -1.54606,4.96734 -3.45299,5.69911 -1.90693,0.73175 -3.48651,3.77369 -3.48651,6.73835 0,6.14779 -4.91091,17.80783 -7.50942,17.83486 -0.95347,0.009 -1.74326,2.69828 -1.74326,5.96731 0,3.26901 -1.60704,7.54082 -3.58708,9.52086 -1.98004,1.98004 -3.04906,5.02888 -2.38022,6.77189 0.68397,1.78237 -0.23584,3.18479 -2.11202,3.18479 -2.73879,0 -3.46676,6.51878 -3.98938,36.40725 -0.39813,22.76878 -1.50449,36.20778 -2.95013,35.87088 -1.27128,-0.2963 -2.93768,-7.0518 -3.72118,-15.0189 l -1.44154,-14.51591 -0.10057,15.05231 c -0.2169,25.6722 -0.43903,27.7245 -2.81603,27.7245 -3.13812,0 -3.17117,-186.39958 -0.0335,-188.33876 1.45532,-0.89941 2.49203,18.7397 2.9166,54.74497 l 0.67049,56.15299 0.53638,-57.19223 c 0.46319,-49.5482 0.0528,-57.22577 -2.95013,-57.22577 -2.66166,0 -3.45298,-2.94629 -3.45298,-12.70566 l 0,-12.70566 -26.58467,0 -26.58467,0 0,12.70566 c 0,6.99207 -1.04188,12.70566 -2.31317,12.70566 -1.27127,0 -2.31317,1.10095 -2.31317,2.44727 0,1.34631 1.0419,1.82495 2.31317,1.03925 1.52661,-0.94351 2.31317,30.78397 2.31317,93.46538 0,61.729 -0.80974,94.9069 -2.31317,94.9069 -1.49124,0 -2.50053,-31.3634 -2.84955,-88.40321 -0.51212,-83.69401 -0.55828,-84.89339 -1.17334,-22.22652 -0.54144,55.16262 -1.23007,66.68628 -4.08996,69.05978 -3.02575,2.51115 -3.45299,-8.4279 -3.45299,-92.22498 l 0,-95.04103 -35.80381,0 -35.83734,0 0,54.30916 0,54.34268 -2.11202,0.067 0,2.31317 2.11202,0.16762 0,27.62392 0,27.5904 -7.50941,0.36876 -7.50942,0.40229 7.50942,0.90515 c 6.62025,0.82155 7.50941,1.76325 7.50941,7.94523 l 0,7.04008 -7.50941,-4.76044 -7.50942,-4.76042 -0.67048,-23.19873 -0.63696,-23.23225 -18.43829,0 -18.40477,0 0,32.85368 0,32.82016 -9.21915,-9.01799 -9.25267,-9.05153 0,14.51596 0,14.51596 -9.82258,-0.6705 c -8.41633,-0.5838 -9.98952,-1.5237 -10.99593,-6.5372 -1.03047,-5.13323 -2.80675,-6.09378 -14.44892,-7.84464 -8.71124,-1.3101 -13.27557,-3.08809 -13.27557,-5.16272 0,-1.73841 -2.56645,-3.80658 -5.69911,-4.59281 -5.41649,-1.35945 -8.02946,-5.68507 -9.62144,-15.99104 -0.39273,-2.54256 -1.72313,-8.79386 -2.98365,-13.879 -1.26051,-5.08514 -1.98027,-16.76441 -1.57563,-25.98123 0.40464,-9.21683 -0.0357,-16.76209 -0.97221,-16.76209 -0.93643,0 -2.34019,-3.18596 -3.11774,-7.0736 -0.77752,-3.88765 -2.88791,-8.55349 -4.69338,-10.35897 -2.58886,-2.58885 -3.018,-8.29652 -2.01145,-27.02048 0.70197,-13.05835 2.00483,-24.2728 2.88307,-24.90846 2.23388,-1.6168 6.97303,-15.96589 6.97303,-21.12023 0,-2.86643 -1.71148,-4.32601 -5.19625,-4.39166 -7.03089,-0.13225 -16.3162,-14.69442 -15.01883,-23.53397 0.77434,-5.27588 -0.048,-6.77971 -4.29109,-7.84466 -6.99128,-1.75469 -10.67738,0.79597 -8.95095,6.2355 0.77304,2.43558 0.48522,4.42519 -0.67048,4.42519 -3.10846,0 -7.87034,-17.60892 -9.21915,-34.09408 -0.65013,-7.94553 -2.04459,-14.44891 -3.08423,-14.44891 z m 467.12579,9.25266 c -8.2708,0 -9.25267,0.59979 -9.25267,5.66559 0,3.11463 2.05378,41.84929 4.55929,86.09007 5.30471,93.66631 6.43712,114.8586 8.1799,150.9593 0.70578,14.6198 1.83356,29.9624 2.48079,34.0941 l 1.17334,7.5094 199.83758,0 199.83757,0 0,-10.3925 0,-10.426 -12.4039,0 -12.404,0 -1.1063,-21.4554 c -0.9643,-18.438 -2.1302,-23.26197 -8.1799,-34.09413 -3.8756,-6.93947 -7.9443,-12.5068 -9.018,-12.37041 -1.0738,0.13632 -5.0272,5.34573 -8.7833,11.56583 -5.88095,9.73928 -6.9844,14.34583 -8.11285,33.25598 l -1.30744,21.95833 -1.47507,-35.83734 c -0.79975,-19.70492 -2.63859,-39.00813 -4.08995,-42.91093 -1.78187,-4.79166 -5.79164,-8.64454 -12.37042,-11.83404 l -9.75553,-4.7269 -9.78906,4.76042 c -11.1356,5.40458 -13.27809,9.97681 -16.46037,35.06629 l -2.04497,16.19217 -0.40229,-20.8185 c -0.49905,-26.41113 -3.09485,-39.71957 -8.58219,-44.18486 -2.38434,-1.9402 -3.03064,-2.88345 -1.44154,-2.07851 4.78317,2.42287 3.25249,-3.0816 -1.57564,-5.66558 -6.85288,-3.66754 -12.86137,-2.85266 -17.56666,2.34669 -4.16804,4.60551 -4.18092,4.68259 0.20114,3.08423 3.44522,-1.25663 3.15686,-0.52735 -1.27391,3.15127 -5.7594,4.78182 -5.78757,4.94435 -6.93951,54.10801 -1.45896,62.27338 -4.02912,51.08598 -6.97302,-30.40642 -1.50553,-41.6771 -3.16163,-62.10193 -5.66559,-69.7638 -1.94762,-5.95965 -3.52003,-12.46303 -3.52003,-14.44891 0,-1.98587 -1.04194,-3.62062 -2.31317,-3.62062 -1.27124,0 -2.32846,1.83168 -2.3467,4.05642 -0.0185,2.22476 -1.51416,8.26492 -3.31889,13.4432 -2.24971,6.45484 -3.72993,25.70908 -4.69338,61.24866 -1.55262,57.271 -2.73322,71.50705 -5.9673,71.50705 -1.30632,0 -2.17908,-29.034 -2.17908,-72.94859 l 0,-72.94859 -10.35897,-10.82831 c -7.33401,-7.6862 -10.35494,-9.6723 -10.39248,-6.80541 -0.0294,2.22475 -1.61319,4.0229 -3.52004,4.0229 -2.37974,0 -3.453,-2.3876 -3.453,-7.60999 0,-5.96449 -2.2724,-9.79912 -10.42602,-17.80133 l -10.39248,-10.22487 0,51.49312 c 0,33.72415 -0.79863,50.95408 -2.31317,50.01806 -1.27124,-0.7857 -2.458,-4.72668 -2.64841,-8.78333 l -0.33524,-7.37531 -1.03925,6.9395 c -0.55763,3.81386 -2.21099,8.37435 -3.68767,10.15782 -1.75644,2.12146 -3.08255,19.84268 -3.85527,51.25846 -0.64946,26.41058 -1.97707,48.81027 -2.9166,49.74987 -0.93964,0.9396 -1.67622,-22.98526 -1.67622,-53.13581 l 0,-54.81202 -13.30909,0.70401 -13.27557,0.67048 -1.2404,58.96901 c -0.6686,32.41779 -1.42486,55.07623 -1.70972,50.35333 -0.28487,-4.7229 -1.9972,-13.058 -3.78823,-18.50536 -5.37599,-16.35116 -5.81719,-21.44855 -7.27475,-81.5643 -0.77061,-31.78217 -2.37598,-62.91192 -3.55357,-69.1939 -2.22613,-11.87584 -7.50107,-22.09242 -11.39821,-22.09242 -1.24198,0 -2.40962,-7.04108 -2.58137,-15.62226 l -0.30171,-15.58875 -2.58136,15.75636 c -1.74752,10.69471 -3.86122,16.50501 -6.60427,18.03601 -2.22474,1.24172 -4.07149,4.04039 -4.08995,6.20197 -0.0191,2.16158 -1.52044,8.08985 -3.35241,13.175 -2.56958,7.13246 -3.37468,23.09112 -3.45298,69.8979 -0.0649,38.84142 -0.93408,60.67875 -2.41375,60.67875 -1.27129,0 -2.33516,2.87355 -2.38021,6.36959 -0.045,3.49603 -1.56912,8.95753 -3.38594,12.13574 l -3.31889,5.76617 -0.13411,-6.93951 c -0.0895,-3.81386 -0.39711,-22.43877 -0.67048,-41.40236 -0.36278,-25.16394 -1.27725,-34.73246 -3.38594,-35.43505 -1.94348,-0.64754 -2.90089,-6.39051 -2.95012,-17.53313 -0.0403,-9.11088 -1.59309,-27.48394 -3.41947,-40.83244 -1.82637,-13.34851 -3.34572,-25.53835 -3.38594,-27.08754 -0.0403,-1.55041 -1.54665,-2.23505 -3.35242,-1.54211 -2.12774,0.81649 -3.66043,-0.63857 -4.32462,-4.12347 -0.93853,-4.92449 -1.0527,-4.8629 -1.34097,0.83811 -0.17312,3.42393 -2.34377,7.65716 -4.86101,9.42029 -8.65456,6.06191 -11.777,19.03489 -14.21424,59.13663 -4.41793,72.69107 -6.02191,63.2982 -6.33607,-37.21183 l -0.30171,-98.82925 -9.25268,0 z m -275.40105,50.68855 c 0.48907,-0.0867 1.07848,0.13981 1.70973,0.77106 0.74802,0.74802 0.88652,3.24074 0.33524,5.56501 -0.95774,4.03783 -1.06355,4.06091 -2.78251,0.10057 -1.35964,-3.13246 -0.7297,-6.17672 0.73754,-6.43664 z m 7.27473,0.16762 c 1.2713,0 2.31318,1.57958 2.31318,3.48651 0,1.90693 -1.04188,3.453 -2.31318,3.453 -1.27127,0 -2.31316,-1.54607 -2.31316,-3.453 0,-1.90693 1.04189,-3.48651 2.31316,-3.48651 z m 11.56585,0 c 1.27128,0 2.31317,1.57958 2.31317,3.48651 0,1.90693 -1.04189,3.453 -2.31317,3.453 -1.27129,0 -2.31317,-1.54607 -2.31317,-3.453 0,-1.90693 1.04188,-3.48651 2.31317,-3.48651 z m 6.90598,0 c 1.27128,0 2.31317,1.487 2.31317,3.31889 0,1.8319 -1.04189,3.97474 -2.31317,4.76043 -1.27129,0.78571 -2.31317,-0.70129 -2.31317,-3.31889 0,-2.6176 1.04188,-4.76043 2.31317,-4.76043 z m 11.56583,0 c 1.27129,0 2.31317,1.57958 2.31317,3.48651 0,1.90693 -1.04188,3.453 -2.31317,3.453 -1.27128,0 -2.31316,-1.54607 -2.31316,-3.453 0,-1.90693 1.04188,-3.48651 2.31316,-3.48651 z m 18.50535,0 c 1.27128,0 2.31317,1.57958 2.31317,3.48651 0,1.90693 -1.04189,3.453 -2.31317,3.453 -1.27129,0 -2.31317,-1.54607 -2.31317,-3.453 0,-1.90693 1.04188,-3.48651 2.31317,-3.48651 z m -42.94447,1.07278 c 0.16516,-0.0369 0.33601,0.17388 0.5364,0.67047 0.64121,1.58912 0.64121,4.17705 0,5.76617 -0.64123,1.5891 -1.13983,0.29513 -1.13983,-2.88309 0,-2.18501 0.24009,-3.47246 0.60343,-3.55355 z m 18.47183,0 c 0.16515,-0.0369 0.36953,0.17388 0.5699,0.67047 0.64122,1.58912 0.64122,4.17705 0,5.76617 -0.64121,1.5891 -1.17335,0.29513 -1.17335,-2.88309 0,-2.18501 0.24009,-3.47246 0.60345,-3.55355 z m 11.56583,0 c 0.16516,-0.0369 0.36954,0.17388 0.56991,0.67047 0.64122,1.58912 0.64122,4.17705 0,5.76617 -0.6412,1.5891 -1.17334,0.29513 -1.17334,-2.88309 0,-2.18501 0.24009,-3.47246 0.60343,-3.55355 z m 6.9395,0 c 0.16516,-0.0369 0.36953,0.17388 0.56992,0.67047 0.64121,1.58912 0.64121,4.17705 0,5.76617 -0.64122,1.5891 -1.17335,0.29513 -1.17335,-2.88309 0,-2.18501 0.24009,-3.47246 0.60343,-3.55355 z m 11.56585,0 c 0.16516,-0.0369 0.336,0.17388 0.53638,0.67047 0.64121,1.58912 0.64121,4.17705 0,5.76617 -0.64122,1.5891 -1.13982,0.29513 -1.13982,-2.88309 0,-2.18501 0.24008,-3.47246 0.60344,-3.55355 z m -61.08105,10.49306 c 1.48959,0 2.31317,24.64036 2.31317,69.32798 0,38.13858 -0.3473,69.36151 -0.77106,69.36151 -3.24829,0 -3.85527,-11.13522 -3.85527,-70.90362 0,-43.66032 0.82474,-67.78587 2.31316,-67.78587 z m 6.9395,0 c 1.48959,0 2.31318,24.64036 2.31318,69.32798 0,44.68762 -0.82359,69.36151 -2.31318,69.36151 -1.48957,0 -2.31316,-24.67389 -2.31316,-69.36151 0,-44.68762 0.82359,-69.32798 2.31316,-69.32798 z m 11.56585,0 c 1.48957,0 2.31317,24.64036 2.31317,69.32798 0,38.13858 -0.3473,69.36151 -0.77106,69.36151 -3.2483,0 -3.85528,-11.13522 -3.85528,-70.90362 0,-43.66032 0.82475,-67.78587 2.31317,-67.78587 z m 6.8054,0 c 1.31879,0 2.23621,26.96967 2.3467,68.02054 0.11885,44.13436 -0.64239,68.51234 -2.17908,69.46209 -1.59662,0.98674 -2.38021,-21.17899 -2.38021,-68.02055 0,-42.09938 0.88863,-69.46208 2.21259,-69.46208 z m 11.66641,0 c 1.48958,0 2.31317,24.64036 2.31317,69.32798 0,38.13858 -0.3473,69.36151 -0.77105,69.36151 -3.2483,0 -3.85528,-11.13522 -3.85528,-70.90362 0,-43.66032 0.82473,-67.78587 2.31316,-67.78587 z m 18.50535,0 c 1.48872,0 2.31317,24.27101 2.31317,68.18816 0,43.91716 -0.82445,68.18816 -2.31317,68.18816 -1.48872,0 -2.31317,-24.271 -2.31317,-68.18816 0,-43.91715 0.82445,-68.18816 2.31317,-68.18816 z m -42.50865,25.81361 c 0.0921,0.15054 0.19299,2.82784 0.30171,8.28047 0.38662,19.38711 0.38662,51.11421 0,70.50133 -0.38659,19.38711 -0.70399,3.5068 -0.70399,-35.26743 0,-27.86898 0.16682,-43.8991 0.40228,-43.51437 z m 18.50535,0 c 0.0921,0.15054 0.19297,2.82784 0.30171,8.28047 0.38661,19.38711 0.38661,51.11421 0,70.50133 -0.38662,19.38711 -0.70401,3.5068 -0.70401,-35.26743 0,-27.86898 0.16682,-43.8991 0.4023,-43.51437 z m 11.56583,0 c 0.0921,0.15054 0.19298,2.82784 0.30172,8.28047 0.38662,19.38711 0.38662,51.11421 0,70.50133 -0.38661,19.38711 -0.70401,3.5068 -0.70401,-35.26743 0,-27.86898 0.16683,-43.8991 0.40229,-43.51437 z m 18.47181,0 c 0.0921,0.15054 0.19299,2.82784 0.30173,8.28047 0.3866,19.38711 0.3866,51.11421 0,70.50133 -0.38662,19.38711 -0.70401,3.5068 -0.70401,-35.26743 0,-27.86898 0.16682,-43.8991 0.40228,-43.51437 z m -11.56583,0.0335 c 0.0907,0.25258 0.19531,2.91084 0.30172,8.24695 0.3866,19.38711 0.3866,51.11421 0,70.50133 -0.1059,5.31007 -0.21143,7.93862 -0.30172,8.21342 -0.21906,-0.98924 -0.36876,-16.82356 -0.36876,-43.48085 0,-26.65728 0.1497,-42.49161 0.36876,-43.48085 z m 54.14153,0.43582 c 1.06557,-0.0351 2.35127,0.0229 3.95586,0.067 l 8.68276,0.23467 2.0785,17.9019 c 1.14974,9.85248 2.98142,17.90191 4.05642,17.90191 1.07498,0 1.9444,4.10583 1.9444,9.08505 0,4.97919 1.05341,9.3988 2.31317,9.82258 1.8333,0.61668 3.35089,79.65319 2.44726,127.29131 l -0.13409,6.3696 -21.95833,0 -21.95834,0 0,-67.01485 c 0,-43.14669 0.82536,-67.04835 2.31318,-67.04835 1.27128,0 2.31316,-4.16753 2.31316,-9.25266 0,-5.08516 1.04188,-9.25268 2.31317,-9.25268 1.27128,0 2.31317,-4.13399 2.31317,-9.21915 0,-5.08514 1.04187,-9.25267 2.31317,-9.25267 1.27127,0 2.31316,-4.01884 2.31316,-8.91743 0,-7.14462 0.0759,-8.56425 4.69338,-8.71628 z m 439.73655,22.72939 c -0.4461,0.0456 -0.58715,1.18796 -0.60343,3.55356 -0.0194,2.86039 1.0083,5.22977 2.27963,5.22977 2.89596,0 2.89596,-2.45819 0,-6.93951 -0.79271,-1.2266 -1.32924,-1.87933 -1.6762,-1.84382 z m 1.10629,12.26984 c -2.60586,-0.004 -5.40848,1.34167 -5.86673,3.72118 -0.55698,2.89227 0.64051,3.46508 5.2633,2.58137 3.29288,-0.62948 5.60615,-2.29044 5.1292,-3.72119 -0.5824,-1.74726 -2.49899,-2.57828 -4.52577,-2.58136 z m 1.17335,8.07933 c -2.71836,0.15897 -5.84668,1.40908 -7.54294,3.45299 -2.36954,2.85509 -2.15928,3.45299 1.13983,3.45299 3.42385,0 3.26359,0.59939 -1.00573,4.05643 -4.93112,3.99296 -4.85205,4.02289 5.43091,4.02289 9.93678,0 10.36246,-0.25386 9.05154,-5.76615 -0.75588,-3.17823 -1.81182,-6.55595 -2.3467,-7.50942 -0.7293,-1.29996 -2.61263,-1.83338 -4.72691,-1.70973 z m -0.60344,21.0867 c 1.04737,0 2.08848,0.14873 2.88309,0.46934 1.58909,0.64122 0.29511,1.17335 -2.88309,1.17335 -3.17819,0 -4.47217,-0.53213 -2.88307,-1.17335 0.79455,-0.32061 1.83572,-0.46934 2.88307,-0.46934 z m -721.67481,14.54951 c 0.15564,0.006 0.33384,0.0631 0.50287,0.16762 1.27127,0.7857 2.31316,3.37364 2.31316,5.76616 0,2.39251 -1.04189,5.01398 -2.31316,5.79968 -1.35219,0.83571 -2.31317,-1.58352 -2.31317,-5.79968 0,-3.68915 0.72083,-5.97697 1.8103,-5.93378 z m 9.25267,0 c 0.1554,0.007 0.3343,0.0635 0.50287,0.16762 1.27128,0.7857 2.31316,3.97041 2.31316,7.0736 0,3.10318 -1.04188,5.63206 -2.31316,5.63206 -1.2713,0 -2.31317,-3.18471 -2.31317,-7.0736 0,-3.60956 0.72258,-5.85174 1.8103,-5.79968 z m -19.20934,0.9722 c 0.14974,-0.0516 0.32117,0.24344 0.50286,0.93868 0.58137,2.22475 0.58137,5.85458 0,8.07932 -0.58139,2.22475 -1.07277,0.39308 -1.07277,-4.05642 0,-3.05903 0.24045,-4.84806 0.56991,-4.96158 z m 174.29216,7.57647 c -1.25685,-0.0155 -2.59671,0.10926 -3.72119,0.40228 -2.24895,0.58605 -0.96429,1.12625 2.84955,1.17335 3.81386,0.0471 5.65486,-0.4396 4.08996,-1.07277 -0.78246,-0.31652 -1.96148,-0.48737 -3.21832,-0.50286 z m 0,4.62633 c -1.25685,-0.0155 -2.59671,0.10928 -3.72119,0.40228 -2.24895,0.58604 -0.96429,1.12626 2.84955,1.17335 3.81386,0.0471 5.65486,-0.4396 4.08996,-1.07277 -0.78246,-0.31651 -1.96148,-0.48736 -3.21832,-0.50286 z m -3.18481,4.32462 c -1.90693,0 -3.4865,1.01473 -3.4865,2.24612 0,1.23137 1.57957,1.6369 3.4865,0.90515 1.90692,-0.73177 3.453,-1.74648 3.453,-2.24612 0,-0.49961 -1.54608,-0.90515 -3.453,-0.90515 z m -75.73109,3.15127 c -0.95188,-0.0763 -1.71577,3.71476 -1.70973,8.85038 l 0.0335,0 0,9.95668 10.25839,0.26819 10.29193,0.30172 -1.3745,-7.2077 c -1.69471,-8.92177 -1.18451,-8.3472 -8.95095,-9.75553 -3.56293,-0.64607 -7.30497,-1.70235 -8.34752,-2.3467 -0.0652,-0.0403 -0.13769,-0.062 -0.20114,-0.067 z m 77.97722,13.34261 c -0.96047,0.0457 -1.93915,0.18253 -2.78251,0.4023 -2.24895,0.58604 -0.96429,1.09273 2.84955,1.13983 3.81386,0.0471 5.65486,-0.43961 4.08996,-1.07279 -0.97807,-0.39577 -2.55621,-0.54547 -4.157,-0.46934 z m 12.43747,1.81032 c 0.48907,-0.0866 1.07848,0.13979 1.70973,0.77105 0.74802,0.74803 0.88652,3.27427 0.33524,5.59854 -0.95774,4.03782 -1.06355,4.02738 -2.78251,0.067 -1.35964,-3.13249 -0.7297,-6.17673 0.73754,-6.43664 z m 18.47181,0 c 0.48908,-0.0866 1.07848,0.13979 1.70973,0.77105 0.74804,0.74803 0.92004,3.27427 0.36878,5.59854 -0.95776,4.03782 -1.09707,4.02738 -2.81604,0.067 -1.35963,-3.13249 -0.72969,-6.17673 0.73753,-6.43664 z m -11.19708,0.20114 c 1.2713,0 2.31318,2.08375 2.31318,4.62634 0,2.54257 -1.04188,4.59281 -2.31318,4.59281 -1.27127,0 -2.31316,-2.05024 -2.31316,-4.59281 0,-2.54259 1.04189,-4.62634 2.31316,-4.62634 z m 30.03766,0 c 1.27129,0 2.31317,1.54606 2.31317,3.45299 0,1.90693 -1.04188,3.48652 -2.31317,3.48652 -1.27128,0 -2.31316,-1.57959 -2.31316,-3.48652 0,-1.90693 1.04188,-3.45299 2.31316,-3.45299 z m 18.50535,0 c 1.27128,0 2.31317,2.08375 2.31317,4.62634 0,2.54257 -1.04189,4.59281 -2.31317,4.59281 -1.27129,0 -2.31317,-2.05024 -2.31317,-4.59281 0,-2.54259 1.04188,-4.62634 2.31317,-4.62634 z m -31.41215,0.63696 c 0.42437,-0.0198 1.0013,0.39787 1.81031,1.20687 2.15733,2.15732 2.15733,3.37417 0,5.53148 -2.15733,2.15733 -2.78251,1.5657 -2.78251,-2.74897 0,-2.69668 0.26494,-3.95628 0.9722,-3.98938 z m -11.53232,0.40228 c 0.16516,-0.0369 0.33601,0.17389 0.5364,0.67049 0.64121,1.58911 0.64121,4.21057 0,5.79969 -0.64123,1.5891 -1.13983,0.29512 -1.13983,-2.88308 0,-2.18503 0.24009,-3.50601 0.60343,-3.5871 z m 18.47183,0 c 0.16515,-0.0369 0.36953,0.17389 0.5699,0.67049 0.64122,1.58911 0.64122,4.21057 0,5.79969 -0.64121,1.5891 -1.17335,0.29512 -1.17335,-2.88308 0,-2.18503 0.24009,-3.50601 0.60345,-3.5871 z m 11.56583,0 c 0.16516,-0.0369 0.36954,0.17389 0.56991,0.67049 0.64122,1.58911 0.64122,4.21057 0,5.79969 -0.6412,1.5891 -1.17334,0.29512 -1.17334,-2.88308 0,-2.18503 0.24009,-3.50601 0.60343,-3.5871 z m 6.9395,0 c 0.16516,-0.0369 0.36953,0.17389 0.56992,0.67049 0.64121,1.58911 0.64121,4.21057 0,5.79969 -0.64122,1.5891 -1.17335,0.29512 -1.17335,-2.88308 0,-2.18503 0.24009,-3.50601 0.60343,-3.5871 z m 11.56585,0 c 0.16516,-0.0369 0.336,0.17389 0.53638,0.67049 0.64121,1.58911 0.64121,4.21057 0,5.79969 -0.64122,1.5891 -1.13982,0.29512 -1.13982,-2.88308 0,-2.18503 0.24008,-3.50601 0.60344,-3.5871 z m -75.7311,1.57565 c -0.77367,0.0601 -1.51611,0.22887 -2.11202,0.46933 -1.58911,0.64121 -0.29515,1.17335 2.88307,1.17335 3.17822,0 4.47218,-0.53214 2.88308,-1.17335 -0.99319,-0.40076 -2.36468,-0.56952 -3.65413,-0.46933 z m 154.57995,2.74897 c -0.28685,0.0309 -0.4627,3.53691 -0.46934,9.65496 -0.0106,8.89901 0.39453,12.81962 0.90514,8.71629 0.51043,-4.10333 0.50037,-11.39648 0,-16.19217 -0.15636,-1.49865 -0.30542,-2.19311 -0.4358,-2.17908 z m -151.76392,1.84384 c -1.25685,-0.0155 -2.59671,0.14279 -3.72119,0.43581 -2.24895,0.58603 -0.96429,1.09262 2.84955,1.13982 3.81386,0.0471 5.65486,-0.4396 4.08996,-1.07277 -0.78246,-0.31661 -1.96148,-0.48733 -3.21832,-0.50286 z m 1.77678,9.25267 c -0.63537,0.0429 -1.3187,0.18543 -1.94441,0.43582 -1.8439,0.73784 -1.28468,1.29706 1.40802,1.408 2.43661,0.10036 3.78524,-0.43879 3.01718,-1.20687 -0.48006,-0.47997 -1.42186,-0.70841 -2.48079,-0.63695 z m -167.92257,2.01145 c 1.27127,0 2.31317,1.04188 2.31317,2.31317 0,1.27129 -1.0419,2.31316 -2.31317,2.31316 -1.27129,0 -2.31317,-1.04187 -2.31317,-2.31316 0,-1.27129 1.04188,-2.31317 2.31317,-2.31317 z m 510.8413,20.81847 c 1.27129,0 2.27965,4.6717 2.27965,10.3925 0,10.5827 -0.31971,11.5814 -3.0507,8.8504 -2.45463,-2.4546 -1.78176,-19.2429 0.77105,-19.2429 z"
         style="fill:#333333" />
      <g
         transform="translate(7.9546061,0)"
         id="g4738">
        <path
           inkscape:connector-curvature="0"
           id="path4720"
           style="font-size:102.54949188px;font-style:normal;font-variant:normal;font-weight:bold;font-stretch:normal;text-align:start;line-height:125%;letter-spacing:0px;word-spacing:0px;writing-mode:lr-tb;text-anchor:start;fill:#333333;fill-opacity:1;stroke:none;font-family:STSong;-inkscape-font-specification:STSong Bold"
           d="m 54.945432,834.29614 c -5.19587,10e-6 -9.94733,-0.82039 -14.25438,-2.46119 -4.3071,-1.64078 -8.03306,-3.93105 -11.17789,-6.87081 -3.0765,-2.93974 -5.46932,-6.39223 -7.17847,-10.3575 -1.70916,-4.03359 -2.56374,-8.40903 -2.56373,-13.12634 -10e-6,-4.71723 0.85457,-9.12685 2.56373,-13.22888 1.77752,-4.10193 4.2387,-7.69115 7.38357,-10.7677 3.2132,-3.07642 7.07589,-5.50342 11.58809,-7.28101 4.51215,-1.77745 9.53707,-2.66622 15.07477,-2.66629 4.64887,7e-5 9.02431,0.85465 13.12634,2.56374 4.10192,1.64086 7.69115,3.96531 10.7677,6.97337 3.07641,2.93981 5.50341,6.49485 7.28101,10.66514 1.77745,4.10203 2.66621,8.58002 2.66629,13.43399 -8e-5,4.85404 -0.85466,9.33203 -2.56374,13.43398 -1.70923,4.03363 -4.13623,7.52031 -7.28102,10.46005 -3.07654,2.87139 -6.8025,5.12748 -11.17789,6.76826 -4.30713,1.6408 -9.05858,2.4612 -14.25438,2.46119 m -25.94502,-32.30309 c -10e-6,3.96528 0.64946,7.79379 1.94844,11.48554 1.29894,3.62344 3.07647,6.87084 5.33257,9.74221 2.25607,2.80303 4.92235,5.05912 7.99886,6.76826 3.14482,1.6408 6.56314,2.4612 10.25495,2.46119 8.75084,10e-6 15.38237,-2.63209 19.8946,-7.89631 4.51212,-5.33255 6.7682,-12.92121 6.76827,-22.76599 -7e-5,-4.7856 -0.64954,-9.16104 -1.94844,-13.12633 -1.23066,-3.9652 -3.00818,-7.34932 -5.33257,-10.1524 -2.25615,-2.87132 -4.9908,-5.09323 -8.20396,-6.66572 -3.21327,-1.57236 -6.8025,-2.35857 -10.7677,-2.35864 -4.10201,7e-5 -7.79379,0.85465 -11.07534,2.56374 -3.21325,1.64086 -5.91371,3.93113 -8.10141,6.87082 -2.18775,2.93981 -3.86272,6.3923 -5.02493,10.35749 -1.16224,3.9653 -1.74335,8.20401 -1.74334,12.71614" />
        <path
           inkscape:connector-curvature="0"
           id="path4722"
           style="font-size:102.54949188px;font-style:normal;font-variant:normal;font-weight:bold;font-stretch:normal;text-align:start;line-height:125%;letter-spacing:0px;word-spacing:0px;writing-mode:lr-tb;text-anchor:start;fill:#333333;fill-opacity:1;stroke:none;font-family:STSong;-inkscape-font-specification:STSong Bold"
           d="m 208.48802,769.02339 c 0.47856,-1.77745 0.95712,-2.66621 1.43569,-2.66629 0.54693,8e-5 1.16222,0.68374 1.84589,2.05099 0.75202,1.3674 1.4015,2.18779 1.94844,2.46119 0.54692,0.20517 1.6066,0.30772 3.17904,0.30765 l 39.68665,0 c 1.23054,7e-5 2.18767,7e-5 2.87139,0 0.75197,-0.0683 1.33308,-0.20503 1.74334,-0.4102 0.4785,-0.20503 0.85452,-0.47849 1.12804,-0.8204 0.34177,-0.41012 0.68361,-0.99124 1.0255,-1.74334 0.4785,-1.29888 1.05961,-1.94836 1.74334,-1.94844 0.8887,8e-5 1.33308,0.68374 1.33314,2.05099 l -0.2051,16.20282 c -6e-5,0.54699 -0.10261,0.99137 -0.30765,1.33314 -0.13679,0.27353 -0.37607,0.37607 -0.71784,0.30765 -0.27353,-0.13667 -0.58118,-0.47851 -0.92295,-1.02549 -0.34189,-0.61524 -0.64954,-1.60655 -0.92294,-2.97394 -0.34189,-1.43563 -0.71791,-2.63204 -1.12805,-3.58923 -0.34189,-1.02543 -0.85463,-1.84583 -1.53824,-2.46119 -0.68372,-0.61523 -1.60666,-1.05961 -2.76884,-1.33314 -1.09391,-0.34177 -2.49542,-0.51268 -4.20453,-0.51275 l -12.81868,0 0,52.81299 c -4e-5,1.8459 0.20506,3.0765 0.61529,3.69178 0.47853,0.61531 1.43566,1.09387 2.87139,1.4357 l 7.99886,1.74334 0,1.64079 c -3.62346,-0.20509 -9.46877,-0.30764 -17.53596,-0.30765 -7.99889,10e-6 -12.81871,0.10256 -14.45948,0.30765 l 0,-1.64079 7.17846,-1.4357 c 1.9826,-0.41019 3.28156,-0.9913 3.89688,-1.74334 0.61527,-0.82038 0.92292,-2.08516 0.92295,-3.79433 l 0,-52.71044 -12.61359,0 c -1.23061,-0.0683 -2.29028,7e-5 -3.17903,0.2051 -0.82041,0.20517 -1.6408,0.64955 -2.46119,1.33314 -0.82041,0.68373 -1.70917,1.64086 -2.66629,2.87139 -0.95713,1.16229 -2.11936,2.70053 -3.48668,4.61473 -0.88876,1.29901 -1.57243,2.11941 -2.05099,2.46119 -0.47856,0.34188 -0.8204,0.37607 -1.02549,0.10254 -0.13674,-0.34177 -0.17092,-0.8887 -0.10255,-1.64079 0.13673,-0.82034 0.30764,-1.7091 0.51274,-2.66628 l 3.17904,-12.51104" />
        <path
           inkscape:connector-curvature="0"
           id="path4724"
           style="font-size:102.54949188px;font-style:normal;font-variant:normal;font-weight:bold;font-stretch:normal;text-align:start;line-height:125%;letter-spacing:0px;word-spacing:0px;writing-mode:lr-tb;text-anchor:start;fill:#333333;fill-opacity:1;stroke:none;font-family:STSong;-inkscape-font-specification:STSong Bold"
           d="m 384.69404,769.02339 c 0.47856,-1.77745 0.95712,-2.66621 1.43569,-2.66629 0.54693,8e-5 1.16222,0.68374 1.84589,2.05099 0.75202,1.3674 1.4015,2.18779 1.94844,2.46119 0.54692,0.20517 1.6066,0.30772 3.17904,0.30765 l 39.68665,0 c 1.23054,7e-5 2.18767,7e-5 2.87139,0 0.75197,-0.0683 1.33308,-0.20503 1.74334,-0.4102 0.4785,-0.20503 0.85452,-0.47849 1.12804,-0.8204 0.34177,-0.41012 0.68361,-0.99124 1.0255,-1.74334 0.4785,-1.29888 1.05961,-1.94836 1.74334,-1.94844 0.8887,8e-5 1.33308,0.68374 1.33314,2.05099 l -0.2051,16.20282 c -6e-5,0.54699 -0.10261,0.99137 -0.30765,1.33314 -0.13679,0.27353 -0.37607,0.37607 -0.71784,0.30765 -0.27353,-0.13667 -0.58118,-0.47851 -0.92295,-1.02549 -0.34189,-0.61524 -0.64954,-1.60655 -0.92294,-2.97394 -0.34189,-1.43563 -0.71791,-2.63204 -1.12805,-3.58923 -0.34189,-1.02543 -0.85463,-1.84583 -1.53824,-2.46119 -0.68372,-0.61523 -1.60666,-1.05961 -2.76884,-1.33314 -1.09391,-0.34177 -2.49542,-0.51268 -4.20453,-0.51275 l -12.81868,0 0,52.81299 c -4e-5,1.8459 0.20506,3.0765 0.61529,3.69178 0.47853,0.61531 1.43566,1.09387 2.87139,1.4357 l 7.99886,1.74334 0,1.64079 c -3.62346,-0.20509 -9.46877,-0.30764 -17.53596,-0.30765 -7.99889,10e-6 -12.81871,0.10256 -14.45948,0.30765 l 0,-1.64079 7.17846,-1.4357 c 1.9826,-0.41019 3.28156,-0.9913 3.89688,-1.74334 0.61527,-0.82038 0.92292,-2.08516 0.92295,-3.79433 l 0,-52.71044 -12.61359,0 c -1.23061,-0.0683 -2.29028,7e-5 -3.17903,0.2051 -0.82041,0.20517 -1.6408,0.64955 -2.46119,1.33314 -0.82041,0.68373 -1.70917,1.64086 -2.66629,2.87139 -0.95713,1.16229 -2.11936,2.70053 -3.48668,4.61473 -0.88876,1.29901 -1.57243,2.11941 -2.05099,2.46119 -0.47856,0.34188 -0.8204,0.37607 -1.02549,0.10254 -0.13674,-0.34177 -0.17092,-0.8887 -0.10255,-1.64079 0.13673,-0.82034 0.30764,-1.7091 0.51274,-2.66628 l 3.17904,-12.51104" />
        <path
           inkscape:connector-curvature="0"
           id="path4726"
           style="font-size:102.54949188px;font-style:normal;font-variant:normal;font-weight:bold;font-stretch:normal;text-align:start;line-height:125%;letter-spacing:0px;word-spacing:0px;writing-mode:lr-tb;text-anchor:start;fill:#333333;fill-opacity:1;stroke:none;font-family:STSong;-inkscape-font-specification:STSong Bold"
           d="m 580.55535,805.47972 -8.20396,23.79149 c -0.34185,1.0255 -0.41021,1.81171 -0.2051,2.35863 0.20509,0.54694 1.23058,0.88878 3.07649,1.0255 l 7.17846,0.51275 0,1.64079 c -0.68369,-0.0684 -2.08519,-0.10254 -4.20453,-0.10255 -2.05101,-0.0684 -4.85402,-0.10254 -8.40906,-0.10255 -3.55505,10e-6 -6.39225,0.0342 -8.5116,0.10255 -2.051,10e-6 -3.41832,0.0342 -4.10198,0.10255 l 0,-1.64079 6.46061,-0.51275 c 2.25608,-0.20509 3.82851,-1.46987 4.71728,-3.79433 l 22.97109,-61.93989 2.97393,0 22.66344,61.22204 c 0.4785,1.16224 0.92288,1.94845 1.33314,2.35864 0.41014,0.41021 1.16217,0.78622 2.25609,1.12804 l 5.64022,1.74335 0,1.53824 c -3.48674,-0.20509 -7.96473,-0.30764 -13.43398,-0.30765 l -5.12747,0 c -1.57248,10e-6 -3.07654,0.0342 -4.51218,0.10255 -1.36737,0.0684 -2.63215,0.13674 -3.79433,0.2051 l 0,-1.53824 6.76826,-1.0255 c 0.95708,-0.13672 1.70911,-0.27346 2.25609,-0.4102 0.54688,-0.20509 0.88871,-0.44437 1.0255,-0.71784 0.20504,-0.34183 0.27341,-0.71784 0.2051,-1.12805 -0.0684,-0.47855 -0.23934,-1.05966 -0.51275,-1.74334 l -8.30651,-22.86854 -20.20225,0 m 19.38185,-2.25608 -9.5371,-26.45777 -9.02435,26.45777 18.56145,0" />
        <path
           inkscape:connector-curvature="0"
           id="path4728"
           style="font-size:102.54949188px;font-style:normal;font-variant:normal;font-weight:bold;font-stretch:normal;text-align:start;line-height:125%;letter-spacing:0px;word-spacing:0px;writing-mode:lr-tb;text-anchor:start;fill:#333333;fill-opacity:1;stroke:none;font-family:STSong;-inkscape-font-specification:STSong Bold"
           d="m 792.41443,795.99391 12.51104,27.68836 16.51047,-42.2504 c 1.43561,-3.69172 2.15345,-6.42637 2.15354,-8.20396 -9e-5,-1.77746 -0.85466,-2.83713 -2.56374,-3.17903 l -4.20453,-0.8204 0,-1.64079 c 0.68359,0.20517 3.2815,0.30772 7.79376,0.30765 4.51209,7e-5 7.34929,-0.10248 8.51161,-0.30765 l 0,1.64079 -3.07649,0.92295 c -1.02558,0.3419 -1.81179,0.82047 -2.35863,1.4357 -0.54702,0.61536 -1.09395,1.67503 -1.6408,3.17903 l -22.25324,59.4787 -2.15354,0 -13.43398,-29.4317 -14.25438,29.4317 -2.15354,0 -22.86853,-56.70987 c -0.61531,-1.43562 -1.12806,-2.59786 -1.53825,-3.48668 -0.34183,-0.95707 -0.71785,-1.6749 -1.12804,-2.15354 -0.34184,-0.54687 -0.71785,-0.95705 -1.12805,-1.2306 -0.34183,-0.27338 -0.82039,-0.51268 -1.43569,-0.71784 l -2.97393,-0.71785 0,-1.64079 c 1.70915,0.20517 4.88818,0.30772 9.5371,0.30765 4.71726,7e-5 8.30649,-0.10248 10.7677,-0.30765 l 0,1.64079 -4.81983,0.92295 c -0.54695,0.1368 -0.82041,0.44444 -0.8204,0.92295 -10e-6,0.95719 0.75202,3.28165 2.25609,6.97337 l 18.56146,46.76257 10.66515,-22.86855 -10.66515,-24.50932 c -0.6837,-1.50401 -1.26481,-2.70042 -1.74334,-3.58924 -0.4786,-0.95707 -0.92298,-1.6749 -1.33314,-2.15354 -0.34187,-0.54687 -0.6837,-0.92288 -1.0255,-1.12805 -0.34186,-0.20503 -0.71788,-0.34176 -1.12804,-0.41019 l -5.02493,-0.92295 0,-1.64079 c 1.91423,0.20517 5.91366,0.30772 11.99829,0.30765 6.0162,7e-5 9.81052,-0.10248 11.383,-0.30765 l 0,1.64079 -5.94788,1.12805 c -0.61533,0.1368 -0.92298,0.51281 -0.92294,1.12805 -4e-5,0.82046 0.75199,2.974 2.25609,6.46061 l 6.25552,14.86968 8.10141,-18.04871 c 0.54687,-1.09379 0.61524,-2.15347 0.2051,-3.17903 -0.34189,-1.02544 -1.02556,-1.60654 -2.05099,-1.74334 l -3.48669,-0.61531 0,-1.64079 c 1.70911,0.20517 4.92232,0.30772 9.63966,0.30765 4.64884,7e-5 7.65695,-0.10248 9.02435,-0.30765 l 0,1.64079 -4.81983,0.92295 c -2.32451,0.47863 -4.10204,2.05106 -5.33257,4.71727 l -9.84475,21.1252" />
        <path
           inkscape:connector-curvature="0"
           id="path4730"
           style="font-size:102.54949188px;font-style:normal;font-variant:normal;font-weight:bold;font-stretch:normal;text-align:start;line-height:125%;letter-spacing:0px;word-spacing:0px;writing-mode:lr-tb;text-anchor:start;fill:#333333;fill-opacity:1;stroke:none;font-family:STSong;-inkscape-font-specification:STSong Bold"
           d="m 971.04749,805.47973 -8.20396,23.79149 c -0.34185,1.0255 -0.41022,1.81171 -0.2051,2.35863 0.20508,0.54693 1.23058,0.88878 3.07648,1.02549 l 7.17847,0.51275 0,1.6408 c -0.68369,-0.0684 -2.0852,-0.10254 -4.20453,-0.10255 -2.05101,-0.0684 -4.85403,-0.10254 -8.40906,-0.10255 -3.55506,10e-6 -6.39226,0.0342 -8.51161,0.10255 -2.05099,1e-5 -3.41832,0.0342 -4.10198,0.10255 l 0,-1.6408 6.46062,-0.51275 c 2.25608,-0.20509 3.8285,-1.46987 4.71728,-3.79432 l 22.97108,-61.93989 2.97394,0 22.66338,61.22204 c 0.4785,1.16224 0.9229,1.94845 1.3332,2.35864 0.4101,0.41021 1.1621,0.78622 2.2561,1.12804 l 5.6402,1.74335 0,1.53824 c -3.4868,-0.20509 -7.9647,-0.30764 -13.434,-0.30765 l -5.12745,0 c -1.57247,10e-6 -3.07653,0.0342 -4.51218,0.10255 -1.36737,0.0684 -2.63214,0.13674 -3.79433,0.2051 l 0,-1.53824 6.76827,-1.0255 c 0.95708,-0.13672 1.70911,-0.27346 2.25609,-0.4102 0.54688,-0.20509 0.88871,-0.44437 1.02549,-0.71784 0.20501,-0.34183 0.27341,-0.71784 0.20511,-1.12805 -0.068,-0.47855 -0.23934,-1.05966 -0.51276,-1.74334 l -8.3065,-22.86854 -20.20225,0 m 19.38185,-2.25608 -9.5371,-26.45777 -9.02436,26.45777 18.56146,0" />
      </g>
    </g>
  </g>
</svg>
